<svg xmlns="http://www.w3.org/2000/svg" viewBox="0 0 400 400"><defs><style>.a{fill:#eb6a0c;}</style></defs><path class="a" d="M109.85,334c0-20.59,0-41.18,0-61.78,0-2.84.68-4.24,3.9-4.24,16.18,0,32.36-.12,48.53-.23a46.86,46.86,0,0,0,9.89-.62c2.78-.61,4.28.18,4.28,3.5,0,5,.24,5,5.26,5.07,18.5.21,37-.43,55.49-.07,11.34.23,22.63-1.25,32.75-6.85,14.59-8.09,25.42-19.65,31.35-35.54s6.2-31.9-.06-47.39c-11.3-28-35-44.51-66.71-41.9-18.1,1.5-32.33,10.15-43.66,24.11-2.87,3.54-5,7.53-7.6,11.21a8.16,8.16,0,0,1-4,2.94,61.08,61.08,0,0,1-23.35,4.05c-13.11-.32-26.23-.1-39.35-.14-4,0-4.65-.65-3.67-4.54a131.86,131.86,0,0,1,41.64-68.82c18.48-16.14,39.48-26.82,64-30.72a143.3,143.3,0,0,1,39.5-1,123.15,123.15,0,0,1,54.29,19.81c19.21,12.7,34.79,28.88,45.66,49.29a116.25,116.25,0,0,1,10.89,28.69,137.72,137.72,0,0,1,1.9,52.88,117.33,117.33,0,0,1-27.08,58.9,143.7,143.7,0,0,1-25.31,23.87,128.83,128.83,0,0,1-37.19,18.74c-14.44,4.46-29.18,5.84-44.24,5.62-18.75-.28-37.5,0-56.26-.16-3.22,0-4.22,1.15-4.36,4.27-1,23.41-12.39,40.3-33.11,50.66-9.5,4.75-20,6.37-30.67,6.39-2.4,0-2.48-1.37-2.48-3.1,0-5.77,0-11.53,0-17.29V334Z"/><path class="a" d="M277,75.22a90.78,90.78,0,0,0-14.58-2.85c-19.88-2.79-39.58-2.06-59,3.51-3,.87-5.58.88-8.52-1.22-15-10.76-31.73-13.78-49.88-10.14C122.5,69,108.17,83.21,98.64,103.07c-4,8.28-5.11,17.36-5.16,26.48-.11,20.6,0,41.2-.1,61.79,0,2.78.69,4,3.64,4.08,6.82.19,13.71.52,20.48.42,14.59-.2,29.19-.18,43.78-.6,24-.69,40.75-13.23,53-32.83,1.95-3.12,4.16-5.27,7.62-6.32,21.95-6.64,41.59-3.43,58.18,13.36,2.05,2.07,2.24,3.79,1.13,6.47-14.64,35.39-40.17,59.81-75.33,74.18-15.57,6.36-32.15,8.45-49,8.42q-28.87-.06-57.75-.1c-5.18,0-5.52.21-5.71,5.19A57.39,57.39,0,0,1,52,316.23c-7.19,2-14.46,2.34-21.74,3.16-2.83.31-2.54-1.64-2.55-3.31q0-15.27,0-30.53,0-40.1,0-80.18c0-27.34-.15-54.68.31-82A115.76,115.76,0,0,1,49.29,58,137.93,137.93,0,0,1,98.07,14.36c20.54-10.94,42.57-15,65.6-14.27,22.06.74,42.85,6.25,61.68,18,22,13.76,39.76,31.61,51.3,55.18a14.07,14.07,0,0,1,.55,1.32C277.23,74.68,277.12,74.81,277,75.22Z"/></svg>